<?xml version="1.0" encoding="UTF-8"?>
<svg id="logo-3" xmlns="http://www.w3.org/2000/svg" version="1.1" viewBox="0 0 101.1 36.9">
  <!-- Generator: Adobe Illustrator 29.3.1, SVG Export Plug-In . SVG Version: 2.1.0 Build 151)  -->
  <defs>
    <style>
      .st0 {
        fill: #f0531c;
      }

      .st1 {
        fill: #f7dfba;
      }

      .st2 {
        fill: #ffa74f;
      }

      .st3 {
        fill: #f7edda;
      }
    </style>
  </defs>
  <g>
    <path class="st0" d="M38,9.9c.7-2.7,2.2-5.1,4.5-6.9,2.2-1.7,4.9-2.7,7.7-2.7s5.5.9,7.7,2.7c2.2,1.7,3.8,4.1,4.5,6.9h-1.1c-1.9,0-3.7.5-5.2,1.6,0,0-.2.1-.3.2h0s-.2-.1-.3-.2c-1.5-1-3.4-1.6-5.2-1.6s-3.7.6-5.2,1.6c0,0-.2.1-.3.2h0s-.2-.1-.3-.2c-1.5-1.1-3.3-1.6-5.2-1.6h-1.1Z"/>
    <path class="st2" d="M59.3,15.6c.6-.4,1.3-.7,2-.7h1.5v-2.9h-1.5c-1.3,0-2.5.4-3.5,1.1-.6.4-1.3.7-2,.7s-1.4-.2-2-.7c-1-.7-2.3-1.1-3.6-1.1s-2.5.4-3.6,1.1c-.6.4-1.3.7-2,.7s-1.4-.2-2-.7c-1-.8-2.3-1.1-3.6-1.1h-1.5v2.9h1.5c.7,0,1.4.2,2,.7,1,.7,2.3,1.1,3.6,1.1s2.5-.4,3.6-1.1c.6-.4,1.3-.7,2-.7s1.4.2,2,.7c1,.7,2.3,1.1,3.6,1.1s2.5-.4,3.6-1.1h0Z"/>
    <path class="st1" d="M59.3,20.9c.6-.4,1.3-.7,2-.7h1.5v-2.9h-1.5c-1.3,0-2.5.4-3.5,1.1-.6.4-1.3.7-2,.7s-1.4-.2-2-.7c-1-.7-2.3-1.1-3.6-1.1s-2.5.4-3.6,1.1c-.6.4-1.3.7-2,.7s-1.4-.2-2-.7c-1-.8-2.3-1.1-3.6-1.1h-1.5v2.9h1.5c.7,0,1.4.2,2,.7,1,.7,2.3,1.1,3.6,1.1s2.5-.4,3.6-1.1c.6-.4,1.3-.7,2-.7s1.4.2,2,.7c1,.7,2.3,1.1,3.6,1.1s2.5-.4,3.6-1.1h0Z"/>
  </g>
  <g>
    <path class="st3" d="M3.2,35.2c-.4,0-.7,0-1.1,0-.4,0-.7-.2-1-.3l.3-1.5c.2,0,.4.2.8.2s.6,0,.9,0,.6,0,.6-.3,0-.2-.2-.2-.3,0-.5,0c-.2,0-.4,0-.6,0-.2,0-.4-.2-.6-.3s-.4-.3-.5-.5-.2-.5-.2-.9c0-.6.2-1.1.8-1.5.5-.4,1.2-.6,2.1-.6h.9c.3,0,.6.1.8.3l-.3,1.5c-.4-.2-.9-.3-1.3-.3h-.6c0,0-.2.1-.2.2s0,.2.2.2.3,0,.5.1c.2,0,.4.1.6.2s.4.2.6.3.4.3.5.5c0,.2.2.5.2.9,0,.6-.2,1.1-.7,1.5s-1.1.5-2,.5v.2Z"/>
    <path class="st3" d="M10.5,35.2c-1,0-1.8-.3-2.4-.8-.6-.5-.9-1.2-.9-2.1v-3.2h2.5v3.3c0,.3,0,.6.2.7.1.2.3.2.6.2s.4,0,.5-.2.2-.4.2-.7v-3.3h2.4v3.2c0,.9-.3,1.6-.8,2.1s-1.3.8-2.3.8Z"/>
    <path class="st3" d="M16.7,28.5c-.4,0-.7-.1-.9-.4-.3-.2-.4-.5-.4-.9s0-.5.2-.6c.1-.2.3-.3.5-.4s.4-.2.6-.2.5,0,.7.2c.2.1.4.3.5.4s.2.4.2.6,0,.5-.2.6c-.1.2-.3.3-.5.4s-.4.2-.7.2h0ZM17.7,35.2c-.5,0-1,0-1.3-.3-.3-.2-.6-.5-.7-.8s-.2-.7-.2-1.1v-3.9h2.5v3.6c0,.2,0,.3.2.4.1,0,.2.2.4.2s.3,0,.5,0v1.7c0,0-.3.2-.6.3-.3,0-.5,0-.8,0h0Z"/>
    <path class="st3" d="M22.8,35.2c-.6,0-1,0-1.4-.3-.4-.2-.6-.5-.8-.8s-.2-.7-.2-1.1v-2.4h-.8v-1.5h.9l1.1-1.9h1.2v1.9h1.4v1.5h-1.4v2.1c0,.2,0,.3.2.4.1,0,.3.2.5.2s.4,0,.6,0l.2,1.7c-.2,0-.4.2-.7.3-.3,0-.6,0-.8,0h0Z"/>
    <path class="st3" d="M28.6,35.2c-.7,0-1.3,0-1.7-.4-.5-.3-.9-.6-1.1-1.1-.3-.5-.4-1-.4-1.6s.1-1.1.4-1.6.7-.8,1.1-1.1c.5-.3,1.1-.4,1.7-.4s1.4.2,1.8.5l-.3,1.6c-.2,0-.4-.1-.6-.2h-.5c-.4,0-.7.1-.9.3s-.3.5-.3.9.1.7.3.9c.2.2.5.3.9.3s.7,0,1.1-.2l.2,1.7c-.3,0-.5.2-.8.3s-.6,0-1,0h0Z"/>
    <path class="st3" d="M34.5,35.2c-.6,0-1.1,0-1.5-.4-.4-.3-.8-.6-1.1-1.1-.3-.5-.4-1-.4-1.6s.1-1.1.4-1.6c.3-.5.6-.8,1.1-1.1.4-.3.9-.4,1.5-.4s.8.1,1.1.3c.4.2.7.6.9,1.1v-1.3h2.5v6h-2.5v-1.1c-.2.4-.4.7-.8.9-.3.2-.7.3-1.2.3ZM35.3,33.3c.3,0,.6,0,.8-.4.2-.2.3-.5.3-.9s0-.6-.3-.8c-.2-.2-.5-.3-.8-.3s-.6.1-.9.3c-.2.2-.3.5-.3.9s0,.6.3.9c.2.2.5.3.9.3Z"/>
    <path class="st3" d="M42.8,35.2c-.4,0-.7,0-1.1,0-.4,0-.7-.2-1-.3l.3-1.5c.2,0,.4.2.8.2s.6,0,.9,0,.6,0,.6-.3,0-.2-.2-.2-.3,0-.5,0-.4,0-.6,0c-.2,0-.4-.2-.6-.3-.2,0-.4-.3-.5-.5s-.2-.5-.2-.9c0-.6.2-1.1.8-1.5.5-.4,1.2-.6,2.1-.6h.9c.2,0,.6.1.8.3l-.3,1.5c-.4-.2-.9-.3-1.3-.3h-.6c0,0-.2.1-.2.2s0,.2.2.2.3,0,.5.1.4.1.6.2c.2,0,.4.2.6.3s.4.3.5.5c0,.2.2.5.2.9,0,.6-.2,1.1-.7,1.5s-1.1.5-2,.5v.2Z"/>
    <path class="st3" d="M50.6,33.6h.7c.3,0,.5,0,.8-.3l.3,1.5c-.3.2-.6.3-1,.3s-.7,0-1.2,0c-.8,0-1.5,0-2-.4-.5-.3-1-.6-1.2-1.1s-.4-1-.4-1.6.2-1.2.5-1.6.7-.8,1.2-1.1,1.1-.4,1.7-.4c.9,0,1.6.3,2.1.8.5.6.7,1.4.7,2.4l-3.6.5c.3.5.8.8,1.5.8h0ZM49,31.7l1.9-.4c0-.3,0-.4-.3-.6,0-.1-.3-.2-.5-.2-.3,0-.6.1-.8.3-.2.2-.3.5-.3.8h0Z"/>
    <path class="st3" d="M58.9,35.2c-.4,0-.7,0-1.1,0-.4,0-.7-.2-1-.3l.3-1.5c.2,0,.4.2.8.2s.6,0,.9,0,.6,0,.6-.3,0-.2-.2-.2-.3,0-.5,0-.4,0-.6,0c-.2,0-.4-.2-.6-.3-.2,0-.4-.3-.5-.5s-.2-.5-.2-.9c0-.6.2-1.1.8-1.5.5-.4,1.2-.6,2.1-.6h.9c.2,0,.6.1.8.3l-.3,1.5c-.4-.2-.9-.3-1.3-.3h-.6c0,0-.2.1-.2.2s0,.2.2.2.3,0,.5.1.4.1.6.2c.2,0,.4.2.6.3s.4.3.5.5c0,.2.2.5.2.9,0,.6-.2,1.1-.7,1.5s-1.1.5-2,.5v.2Z"/>
    <path class="st3" d="M65.6,35.2c-.6,0-1,0-1.4-.3-.4-.2-.6-.5-.8-.8s-.2-.7-.2-1.1v-2.4h-.8v-1.5h.9l1.1-1.9h1.2v1.9h1.4v1.5h-1.4v2.1c0,.2,0,.3.2.4,0,0,.3.2.5.2s.4,0,.6,0l.2,1.7c-.2,0-.4.2-.7.3-.3,0-.6,0-.8,0h0Z"/>
    <path class="st3" d="M71.7,35.2c-.7,0-1.3,0-1.8-.4-.5-.3-.9-.6-1.2-1.1-.3-.5-.4-1-.4-1.6s.2-1.2.5-1.6c.3-.5.7-.8,1.2-1.1.5-.3,1.1-.4,1.8-.4s1.3.1,1.8.4.9.6,1.2,1.1.4,1,.4,1.6,0,1.2-.4,1.6-.7.8-1.2,1.1-1.1.4-1.8.4h0ZM71.7,33.4c.3,0,.6,0,.8-.4.2-.2.3-.6.3-.9s0-.7-.3-.9c-.2-.2-.5-.4-.8-.4s-.6.1-.8.4c-.2.2-.3.6-.3.9s0,.7.3.9c.2.2.5.4.8.4Z"/>
    <path class="st3" d="M76.6,35.1v-6h2.5v1.5c.2-.5.4-.9.8-1.2s.7-.4,1.2-.4l.3,2.1h-.6c-1.1,0-1.7.5-1.7,1.4v2.6h-2.5Z"/>
    <path class="st3" d="M83.8,28.5c-.4,0-.7-.1-.9-.4-.3-.2-.4-.5-.4-.9s0-.5.2-.6c0-.2.3-.3.5-.4s.4-.2.6-.2.5,0,.7.2c.2.1.4.3.5.4s.2.4.2.6,0,.5-.2.6-.3.3-.5.4-.4.2-.7.2h0ZM84.8,35.2c-.5,0-1,0-1.3-.3-.3-.2-.6-.5-.7-.8s-.2-.7-.2-1.1v-3.9h2.5v3.6c0,.2,0,.3.2.4,0,0,.2.2.4.2s.3,0,.5,0v1.7c0,0-.3.2-.6.3-.3,0-.5,0-.8,0h0Z"/>
    <path class="st3" d="M91.2,33.6h.7c.3,0,.5,0,.8-.3l.3,1.5c-.3.2-.6.3-1,.3s-.7,0-1.2,0c-.8,0-1.5,0-2-.4-.5-.3-1-.6-1.2-1.1s-.4-1-.4-1.6.2-1.2.5-1.6.7-.8,1.2-1.1,1.1-.4,1.7-.4c.9,0,1.6.3,2.1.8.5.6.7,1.4.7,2.4l-3.6.5c.3.5.8.8,1.5.8h0ZM89.5,31.7l1.9-.4c0-.3,0-.4-.3-.6,0-.1-.3-.2-.5-.2-.3,0-.6.1-.8.3-.2.2-.3.5-.3.8h0Z"/>
    <path class="st3" d="M96.6,35.2c-.4,0-.7,0-1.1,0-.4,0-.7-.2-1-.3l.3-1.5c.2,0,.4.2.8.2s.6,0,.9,0,.6,0,.6-.3,0-.2-.2-.2-.3,0-.5,0-.4,0-.6,0c-.2,0-.4-.2-.6-.3s-.4-.3-.5-.5-.2-.5-.2-.9c0-.6.2-1.1.8-1.5.5-.4,1.2-.6,2.1-.6h.9c.2,0,.6.1.8.3l-.3,1.5c-.4-.2-.9-.3-1.3-.3h-.6c0,0-.2.1-.2.2s0,.2.2.2.3,0,.5.1.4.1.6.2c.2,0,.4.2.6.3s.4.3.5.5c0,.2.2.5.2.9,0,.6-.2,1.1-.7,1.5s-1.1.5-2,.5v.2Z"/>
  </g>
</svg>