<?xml version="1.0" encoding="UTF-8"?>
<svg id="logo-3" xmlns="http://www.w3.org/2000/svg" version="1.1" viewBox="0 0 27.9 23.6">
  <!-- Generator: Adobe Illustrator 29.3.1, SVG Export Plug-In . SVG Version: 2.1.0 Build 151)  -->
  <defs>
    <style>
      .st0 {
        fill: #f0531c;
      }

      .st1 {
        fill: #f7dfba;
      }

      .st2 {
        fill: #ffa74f;
      }
    </style>
  </defs>
  <path class="st0" d="M.7,10.4c.7-3,2.4-5.6,4.9-7.5C7.9,1,10.9,0,14,0s6,1,8.4,2.9c2.4,1.9,4.1,4.5,4.9,7.5h-1.2c-2,0-4,.6-5.7,1.7,0,0-.2.1-.3.2h-.1c-.1,0-.2-.1-.3-.2-1.7-1.1-3.7-1.7-5.7-1.7s-4,.6-5.7,1.7c0,0-.2.1-.3.2h-.1c-.1,0-.2-.1-.3-.2-1.7-1.2-3.6-1.8-5.7-1.7H.7Z"/>
  <path class="st2" d="M23.9,16.7c.6-.5,1.4-.7,2.2-.7h1.6v-3.2h-1.6c-1.4,0-2.7.4-3.8,1.2-.6.5-1.4.7-2.2.7s-1.5-.2-2.2-.7c-1.1-.8-2.5-1.2-3.9-1.2s-2.7.4-3.9,1.2c-.6.5-1.4.7-2.2.7s-1.5-.2-2.2-.7c-1.1-.8-2.5-1.2-3.9-1.2H.3v3.2h1.6c.8,0,1.5.2,2.2.7,1.1.8,2.5,1.2,3.9,1.2s2.7-.4,3.9-1.2c.6-.5,1.4-.7,2.2-.7.8,0,1.5.2,2.2.7,1.1.8,2.5,1.2,3.9,1.2s2.7-.4,3.9-1.2h0Z"/>
  <path class="st1" d="M23.9,22.4c.6-.5,1.4-.7,2.2-.7h1.6v-3.2h-1.6c-1.4,0-2.7.4-3.8,1.2-.6.5-1.4.7-2.2.7s-1.5-.2-2.2-.7c-1.1-.8-2.5-1.2-3.9-1.2s-2.7.4-3.9,1.2c-.6.5-1.4.7-2.2.7s-1.5-.2-2.2-.7c-1.1-.8-2.5-1.2-3.9-1.2H.3v3.2h1.6c.8,0,1.5.2,2.2.7,1.1.8,2.5,1.2,3.9,1.2s2.7-.4,3.9-1.2c.6-.5,1.4-.7,2.2-.7.8,0,1.5.2,2.2.7,1.1.8,2.5,1.2,3.9,1.2s2.7-.4,3.9-1.2h0Z"/>
</svg>